<mxfile host="app.diagrams.net" modified="2023-10-04T07:19:13.200Z" agent="Mozilla/5.0 (Macintosh; Intel Mac OS X 10_15_7) AppleWebKit/537.36 (KHTML, like Gecko) Chrome/117.0.0.0 Safari/537.36" etag="fgDJCwO6ZwNFCtCzvPlX" version="22.0.2" type="device">
  <diagram name="Page-1" id="PxScn23XMRLN_t7azS9L">
    <mxGraphModel dx="907" dy="608" grid="1" gridSize="10" guides="1" tooltips="1" connect="1" arrows="1" fold="1" page="1" pageScale="1" pageWidth="827" pageHeight="1169" math="0" shadow="0">
      <root>
        <mxCell id="0" />
        <mxCell id="1" parent="0" />
        <mxCell id="elx6NG6oF7splakxTCdl-28" style="edgeStyle=orthogonalEdgeStyle;rounded=0;orthogonalLoop=1;jettySize=auto;html=1;entryX=0.5;entryY=0;entryDx=0;entryDy=0;" edge="1" parent="1" source="elx6NG6oF7splakxTCdl-1" target="elx6NG6oF7splakxTCdl-2">
          <mxGeometry relative="1" as="geometry" />
        </mxCell>
        <mxCell id="elx6NG6oF7splakxTCdl-1" value="Start" style="ellipse;whiteSpace=wrap;html=1;" vertex="1" parent="1">
          <mxGeometry x="379" y="30" width="70" height="30" as="geometry" />
        </mxCell>
        <mxCell id="elx6NG6oF7splakxTCdl-27" style="edgeStyle=orthogonalEdgeStyle;rounded=0;orthogonalLoop=1;jettySize=auto;html=1;entryX=0.5;entryY=0;entryDx=0;entryDy=0;" edge="1" parent="1" source="elx6NG6oF7splakxTCdl-2" target="elx6NG6oF7splakxTCdl-3">
          <mxGeometry relative="1" as="geometry" />
        </mxCell>
        <mxCell id="elx6NG6oF7splakxTCdl-2" value="Initialise&lt;br&gt;choice and num" style="rounded=0;whiteSpace=wrap;html=1;" vertex="1" parent="1">
          <mxGeometry x="354" y="100" width="120" height="60" as="geometry" />
        </mxCell>
        <mxCell id="elx6NG6oF7splakxTCdl-20" style="edgeStyle=orthogonalEdgeStyle;rounded=0;orthogonalLoop=1;jettySize=auto;html=1;" edge="1" parent="1" source="elx6NG6oF7splakxTCdl-3" target="elx6NG6oF7splakxTCdl-5">
          <mxGeometry relative="1" as="geometry" />
        </mxCell>
        <mxCell id="elx6NG6oF7splakxTCdl-3" value="Display&lt;br&gt;&lt;div style=&quot;text-align: left;&quot;&gt;&lt;span style=&quot;background-color: initial;&quot;&gt;Menu with options&lt;/span&gt;&lt;/div&gt;&lt;div style=&quot;text-align: left;&quot;&gt;&lt;span style=&quot;background-color: initial;&quot;&gt;1. Prime or not&lt;/span&gt;&lt;/div&gt;&lt;div style=&quot;text-align: left;&quot;&gt;&lt;span style=&quot;background-color: initial;&quot;&gt;2. Armstrong number or not&lt;/span&gt;&lt;/div&gt;&lt;div style=&quot;text-align: left;&quot;&gt;&lt;span style=&quot;background-color: initial;&quot;&gt;3. Perfect number or not&lt;/span&gt;&lt;/div&gt;&lt;div style=&quot;text-align: left;&quot;&gt;&lt;span style=&quot;background-color: initial;&quot;&gt;4. Exit&lt;/span&gt;&lt;/div&gt;" style="shape=parallelogram;perimeter=parallelogramPerimeter;whiteSpace=wrap;html=1;fixedSize=1;" vertex="1" parent="1">
          <mxGeometry x="311" y="220" width="206" height="120" as="geometry" />
        </mxCell>
        <mxCell id="elx6NG6oF7splakxTCdl-10" style="edgeStyle=orthogonalEdgeStyle;rounded=0;orthogonalLoop=1;jettySize=auto;html=1;entryX=0.5;entryY=0;entryDx=0;entryDy=0;" edge="1" parent="1" source="elx6NG6oF7splakxTCdl-4" target="elx6NG6oF7splakxTCdl-6">
          <mxGeometry relative="1" as="geometry" />
        </mxCell>
        <mxCell id="elx6NG6oF7splakxTCdl-11" style="edgeStyle=orthogonalEdgeStyle;rounded=0;orthogonalLoop=1;jettySize=auto;html=1;exitX=0.25;exitY=1;exitDx=0;exitDy=0;" edge="1" parent="1" source="elx6NG6oF7splakxTCdl-4" target="elx6NG6oF7splakxTCdl-7">
          <mxGeometry relative="1" as="geometry" />
        </mxCell>
        <mxCell id="elx6NG6oF7splakxTCdl-12" style="edgeStyle=orthogonalEdgeStyle;rounded=0;orthogonalLoop=1;jettySize=auto;html=1;exitX=0.75;exitY=1;exitDx=0;exitDy=0;entryX=0.5;entryY=0;entryDx=0;entryDy=0;" edge="1" parent="1" source="elx6NG6oF7splakxTCdl-4" target="elx6NG6oF7splakxTCdl-8">
          <mxGeometry relative="1" as="geometry" />
        </mxCell>
        <mxCell id="elx6NG6oF7splakxTCdl-13" style="edgeStyle=orthogonalEdgeStyle;rounded=0;orthogonalLoop=1;jettySize=auto;html=1;" edge="1" parent="1" source="elx6NG6oF7splakxTCdl-4" target="elx6NG6oF7splakxTCdl-9">
          <mxGeometry relative="1" as="geometry" />
        </mxCell>
        <mxCell id="elx6NG6oF7splakxTCdl-4" value="Switch" style="rounded=1;whiteSpace=wrap;html=1;" vertex="1" parent="1">
          <mxGeometry x="379" y="540" width="70" height="20" as="geometry" />
        </mxCell>
        <mxCell id="elx6NG6oF7splakxTCdl-21" style="edgeStyle=orthogonalEdgeStyle;rounded=0;orthogonalLoop=1;jettySize=auto;html=1;entryX=0.5;entryY=0;entryDx=0;entryDy=0;" edge="1" parent="1" source="elx6NG6oF7splakxTCdl-5" target="elx6NG6oF7splakxTCdl-4">
          <mxGeometry relative="1" as="geometry" />
        </mxCell>
        <mxCell id="elx6NG6oF7splakxTCdl-5" value="Read choice from user" style="shape=parallelogram;perimeter=parallelogramPerimeter;whiteSpace=wrap;html=1;fixedSize=1;" vertex="1" parent="1">
          <mxGeometry x="331" y="400" width="166" height="60" as="geometry" />
        </mxCell>
        <mxCell id="elx6NG6oF7splakxTCdl-16" style="edgeStyle=orthogonalEdgeStyle;rounded=0;orthogonalLoop=1;jettySize=auto;html=1;entryX=0;entryY=0.5;entryDx=0;entryDy=0;" edge="1" parent="1" source="elx6NG6oF7splakxTCdl-6" target="elx6NG6oF7splakxTCdl-14">
          <mxGeometry relative="1" as="geometry">
            <Array as="points">
              <mxPoint x="190" y="780" />
            </Array>
          </mxGeometry>
        </mxCell>
        <mxCell id="elx6NG6oF7splakxTCdl-6" value="Case 1&lt;br&gt;Check Prime" style="rounded=0;whiteSpace=wrap;html=1;" vertex="1" parent="1">
          <mxGeometry x="130" y="610" width="120" height="60" as="geometry" />
        </mxCell>
        <mxCell id="elx6NG6oF7splakxTCdl-15" style="edgeStyle=orthogonalEdgeStyle;rounded=0;orthogonalLoop=1;jettySize=auto;html=1;" edge="1" parent="1" source="elx6NG6oF7splakxTCdl-7" target="elx6NG6oF7splakxTCdl-14">
          <mxGeometry relative="1" as="geometry" />
        </mxCell>
        <mxCell id="elx6NG6oF7splakxTCdl-7" value="Case 2&lt;br&gt;Check Armstrong" style="rounded=0;whiteSpace=wrap;html=1;" vertex="1" parent="1">
          <mxGeometry x="280" y="610" width="120" height="60" as="geometry" />
        </mxCell>
        <mxCell id="elx6NG6oF7splakxTCdl-17" style="edgeStyle=orthogonalEdgeStyle;rounded=0;orthogonalLoop=1;jettySize=auto;html=1;entryX=1;entryY=0.5;entryDx=0;entryDy=0;" edge="1" parent="1" source="elx6NG6oF7splakxTCdl-8" target="elx6NG6oF7splakxTCdl-14">
          <mxGeometry relative="1" as="geometry">
            <Array as="points">
              <mxPoint x="490" y="780" />
            </Array>
          </mxGeometry>
        </mxCell>
        <mxCell id="elx6NG6oF7splakxTCdl-8" value="Case 3&lt;br&gt;Check Perfect" style="rounded=0;whiteSpace=wrap;html=1;" vertex="1" parent="1">
          <mxGeometry x="430" y="610" width="120" height="60" as="geometry" />
        </mxCell>
        <mxCell id="elx6NG6oF7splakxTCdl-23" style="edgeStyle=orthogonalEdgeStyle;rounded=0;orthogonalLoop=1;jettySize=auto;html=1;" edge="1" parent="1" source="elx6NG6oF7splakxTCdl-9" target="elx6NG6oF7splakxTCdl-22">
          <mxGeometry relative="1" as="geometry" />
        </mxCell>
        <mxCell id="elx6NG6oF7splakxTCdl-9" value="Case 4&lt;br&gt;Exit" style="rounded=0;whiteSpace=wrap;html=1;" vertex="1" parent="1">
          <mxGeometry x="580" y="610" width="120" height="60" as="geometry" />
        </mxCell>
        <mxCell id="elx6NG6oF7splakxTCdl-19" style="edgeStyle=orthogonalEdgeStyle;rounded=0;orthogonalLoop=1;jettySize=auto;html=1;entryX=0.5;entryY=0;entryDx=0;entryDy=0;" edge="1" parent="1" source="elx6NG6oF7splakxTCdl-14" target="elx6NG6oF7splakxTCdl-18">
          <mxGeometry relative="1" as="geometry" />
        </mxCell>
        <mxCell id="elx6NG6oF7splakxTCdl-14" value="Display&lt;br&gt;Output" style="shape=parallelogram;perimeter=parallelogramPerimeter;whiteSpace=wrap;html=1;fixedSize=1;" vertex="1" parent="1">
          <mxGeometry x="280" y="750" width="120" height="60" as="geometry" />
        </mxCell>
        <mxCell id="elx6NG6oF7splakxTCdl-26" style="edgeStyle=orthogonalEdgeStyle;rounded=0;orthogonalLoop=1;jettySize=auto;html=1;entryX=0;entryY=0.5;entryDx=0;entryDy=0;" edge="1" parent="1" source="elx6NG6oF7splakxTCdl-18" target="elx6NG6oF7splakxTCdl-3">
          <mxGeometry relative="1" as="geometry">
            <Array as="points">
              <mxPoint x="90" y="910" />
              <mxPoint x="90" y="280" />
            </Array>
          </mxGeometry>
        </mxCell>
        <mxCell id="elx6NG6oF7splakxTCdl-18" value="Loop&lt;br&gt;Back to Menu" style="rounded=0;whiteSpace=wrap;html=1;" vertex="1" parent="1">
          <mxGeometry x="280" y="880" width="120" height="60" as="geometry" />
        </mxCell>
        <mxCell id="elx6NG6oF7splakxTCdl-22" value="Stop" style="ellipse;whiteSpace=wrap;html=1;" vertex="1" parent="1">
          <mxGeometry x="605" y="850" width="70" height="30" as="geometry" />
        </mxCell>
      </root>
    </mxGraphModel>
  </diagram>
</mxfile>
